<svg xmlns="http://www.w3.org/2000/svg" xmlns:xlink="http://www.w3.org/1999/xlink" height="40px" width="40px" fill="#ffffff" version="1.1" x="0px" y="0px" viewBox="0 0 48 48" style="enable-background:new 0 0 48 48;" xml:space="preserve"><style type="text/css">
                .st0{fill:none;stroke:#ffffff;stroke-width:2;stroke-linecap:round;stroke-miterlimit:10;}
                .st1{fill:none;stroke:#ffffff;stroke-width:2;stroke-linecap:round;stroke-linejoin:round;stroke-miterlimit:10;}
                .st2{fill:none;stroke:#ffffff;stroke-width:2;stroke-miterlimit:10;}
            </style><path d="M25.4,24l7.9-7.9c0.4-0.4,0.4-1,0-1.4s-1-0.4-1.4,0L24,22.6l-7.9-7.9c-0.4-0.4-1-0.4-1.4,0s-0.4,1,0,1.4l7.9,7.9l-7.9,7.9  c-0.4,0.4-0.4,1,0,1.4c0.2,0.2,0.5,0.3,0.7,0.3s0.5-0.1,0.7-0.3l7.9-7.9l7.9,7.9c0.2,0.2,0.5,0.3,0.7,0.3s0.5-0.1,0.7-0.3  c0.4-0.4,0.4-1,0-1.4L25.4,24z"/></svg>